PathFileType	4	(X/Y/Z)	RBDS08\RBDS08runT25.trc
DataRate	CameraRate	NumFrames	NumMarkers	Units	OrigDataRate	OrigDataStartFrame	OrigNumFrames
150.000000	150.000000	4	33	mm	150.000000	0	4500
Frame#	Time	L.ASIS			L.Heel.Bottom			L.Heel.Lateral			L.Heel.Top			L.Iliac.Crest			L.MT1			L.MT5			L.PSIS			L.Shank.Bottom.Lateral			L.Shank.Bottom.Medial			L.Shank.Top.Lateral			L.Shank.Top.Medial			L.Thigh.Bottom.Lateral			L.Thigh.Bottom.Medial			L.Thigh.Top.Lateral			L.Thigh.Top.Medial			R.ASIS			R.ASY			R.Heel.Bottom			R.Heel.Lateral			R.Heel.Top			R.Iliac.Crest			R.MT1			R.MT5			R.PSIS			R.Shank.Bottom.Lateral			R.Shank.Bottom.Medial			R.Shank.Top.Lateral			R.Shank.Top.Medial			R.Thigh.Bottom.Lateral			R.Thigh.Bottom.Medial			R.Thigh.Top.Lateral			R.Thigh.Top.Medial			
		X1	Y1	Z1	X2	Y2	Z2	X3	Y3	Z3	X4	Y4	Z4	X5	Y5	Z5	X6	Y6	Z6	X7	Y7	Z7	X8	Y8	Z8	X9	Y9	Z9	X10	Y10	Z10	X11	Y11	Z11	X12	Y12	Z12	X13	Y13	Z13	X14	Y14	Z14	X15	Y15	Z15	X16	Y16	Z16	X17	Y17	Z17	X18	Y18	Z18	X19	Y19	Z19	X20	Y20	Z20	X21	Y21	Z21	X22	Y22	Z22	X23	Y23	Z23	X24	Y24	Z24	X25	Y25	Z25	X26	Y26	Z26	X27	Y27	Z27	X28	Y28	Z28	X29	Y29	Z29	X30	Y30	Z30	X31	Y31	Z31	X32	Y32	Z32	X33	Y33	Z33	

1	0	2201.741943719756	1030.738370089442	911.0949373196347	1592.87950158036	328.1052675020121	983.7816181597022	1616.143445860636	303.6747384727607	937.3242817859262	1644.171229415869	332.7483954860688	983.7196675612714	2151.692783216794	1111.612248800849	891.4962790511807	1688.549248364603	122.5402328275595	1018.352470470751	1652.111399000985	149.8568845938752	917.0057432925922	2037.385205348076	1069.381295069109	985.0777084842312	1725.299083528032	324.4916802475069	926.9562607668582	1704.504265489308	353.2537868887769	964.8571404025961	1782.436056896928	380.3288350359226	912.4621201489485	1765.935349895148	410.429763380344	953.1919366052413	2051.009172113126	653.298060276041	871.7165727230536	1993.751679677371	662.9192292051845	916.2919948651447	2056.712007844959	762.8409945575728	857.5199799797832	2004.351216901794	772.0165544950004	903.6270651942737	2209.293961575219	1032.716790612592	1136.859980221531	2404.912296922871	143.9889357236684	1054.172543102482	2255.570937071572	20.78523376485163	1063.567974615823	2280.020998406604	44.60084732471046	1103.227506069173	2249.148316895474	70.67267718877234	1063.077961805391	2152.150341602503	1101.530268537588	1177.053583778062	2456.923271995985	111.9009261491753	1004.836783330668	2438.680999454587	94.28414865649297	1112.181764302902	2042.783419391204	1067.761794090285	1089.243995406743	2287.140175616468	196.7590045143023	1117.393589151251	2252.206283707335	200.4099268508899	1073.603865697825	2271.473000331583	274.9438926695324	1132.076695456366	2241.395934510078	278.6348202660701	1087.219465181862	2265.026974975298	635.1184438606642	1169.662859816629	2208.449439821353	612.3675450447303	1130.118433738804	2211.916432807816	729.9953983366897	1190.789788512637	2158.344094109739	707.6149214490958	1154.469323633563	
2	0.006666666666666667	2202.449810638867	1026.697031388346	910.9482375254304	1595.35231248714	336.5924101480708	983.9371085940091	1618.253717304936	312.2142223484333	937.2954116441476	1646.711963115121	339.9869364545821	984.0080913440954	2151.011226210642	1107.129219449374	890.7206175382776	1686.352322669878	128.7434475670941	1016.111350995433	1650.861391950921	158.1456521089763	914.9747613185551	2037.894039446098	1064.367475075818	983.7525537256284	1728.316379864471	329.502013343077	926.7593497495176	1708.645704082506	358.8340557876589	964.7180784401263	1787.336344237377	383.269485337471	912.3433178893512	1772.015509157536	413.7621385220776	953.2178383999345	2058.727154446217	646.0434149370001	871.7179343270615	2001.172410418192	654.5973063476637	916.126050051311	2062.303785097226	755.6398922297401	857.2996897989586	2009.444487770005	763.8036947315333	903.0876505472478	2209.563418113894	1029.096875291337	1137.022012128454	2401.929212232524	136.1753950973442	1054.061007235328	2246.821041916038	22.1981656852723	1062.727913477396	2272.246701924147	44.66379718068958	1102.447742639464	2243.824795218908	71.92457987959732	1061.675745787504	2152.119568739176	1097.716040719274	1176.166786240026	2452.200391693736	101.3248318743846	1005.421241546309	2432.1480211116	85.28155726526833	1112.293628027258	2042.524001621248	1063.108447595149	1088.21059389698	2283.299262886861	191.2663574069317	1115.989079924645	2249.107693149577	195.2594786270776	1071.765429270204	2268.020196115993	269.6264824576309	1130.721586018406	2238.524715315608	273.5711726144449	1085.526501643956	2263.207096246762	630.5079381739716	1169.681906227022	2206.218082633366	607.9736632527341	1130.520229364087	2210.796609516991	725.7720849868743	1190.72752628336	2156.917461718323	703.6089333117361	1154.699294932067	
3	0.01333333333333333	2203.15125998537	1022.527868187881	910.8569255668074	1598.201595434641	344.9943438740944	984.1191078881968	1620.711168403616	320.677275424704	937.2789755741567	1649.617765251163	347.1470000650722	984.3001072646457	2150.393882311986	1102.486330942534	889.9483422989651	1684.491004025954	134.8864119381073	1013.830761019994	1649.927914389718	166.3884648813221	912.9367818533328	2038.336672454229	1059.230963891041	982.45176063767	1731.636545240191	334.4429514063206	926.5668963957568	1713.089662612386	364.3145327046733	964.5870742768772	1792.501910575652	386.1425765331279	912.2284862676238	1778.363353003675	416.9947183088211	953.2576477273151	2066.469447458724	638.7904800145249	871.7076080007306	2008.633244103987	646.2553423285492	915.955629891543	2067.896861462797	748.4285123477965	857.0953763564414	2014.574210136037	755.5603065668669	902.588652724065	2209.735625512514	1025.384132789328	1137.220351843575	2398.287297030899	128.5338821356391	1053.880147656821	2237.610142491785	23.58060142497137	1061.920533487702	2263.970280385453	44.75354365570571	1101.692123885924	2237.921599862791	73.13874034435383	1060.310121740074	2152.075281560808	1093.781107835935	1175.343067075752	2446.863645963036	91.07874079629461	1005.966371048921	2425.099603900683	76.60732896153608	1112.419702390489	2042.174687812536	1058.386017134008	1087.163273035422	2279.068756899598	186.000279937949	1114.62549343051	2245.564989848004	190.3854555232726	1070.011090964079	2264.33141457688	264.5413880475085	1129.407554399638	2235.376314498577	268.7823082121076	1083.910237180882	2261.451061154889	625.9694581394451	1169.72107797328	2204.094964591662	603.6180869671261	1130.905989406926	2209.66475432609	721.5660027132088	1190.701565936841	2155.504654221905	699.5950829942153	1154.937141242787	
4	0.02	2203.828870179987	1018.097385911634	910.8605559270183	1601.767617093979	353.2494538913713	984.3484019118803	1623.83544918757	329.0100808464677	937.2834011589847	1653.220141856237	354.1720473920496	984.5987146680299	2149.884905464955	1097.529219023659	889.1808477857894	1683.263801339669	140.9290096864459	1011.475439171946	1649.603284397519	174.557278035465	910.8827812470979	2038.649914305329	1053.857584281943	981.1954243972808	1735.538039738472	339.2576453149865	926.3810673666761	1718.114906909326	369.6136577405003	964.4668403593437	1798.179094812797	388.8857169936086	912.1186577512804	1785.22750296759	420.0394203478677	953.3181019103697	2074.263948323888	631.5316516280049	871.6768767636316	2016.175642042718	637.8636970306259	915.7783691087869	2073.495375355862	741.1900818099559	856.9270129213088	2019.775531446696	747.2491798004921	902.170589734156	2209.718653309506	1021.492579044809	1137.490546651005	2393.403497750811	121.2362351461368	1053.564091679985	2227.540570578815	24.90280246023847	1061.174456025746	2254.757743470224	44.89322626839076	1100.981869047992	2230.932781504427	74.2801881033342	1059.012123372922	2151.980479934557	1089.602139104074	1174.634487470062	2440.374378802556	81.47726878295762	1006.431880759657	2417.082774581858	68.56979746207497	1112.56533684275	2041.652308390356	1053.529227587319	1086.086604178448	2274.103164254055	181.1622190576384	1113.336479394371	2241.186357340549	186.0330706489517	1068.41273406769	2260.196058869088	259.893136224649	1128.169364565838	2231.70432289775	264.5093210552509	1082.435792708232	2259.816525463928	621.5612665710678	1169.793274058818	2202.178654029983	599.3340506412927	1131.250524535772	2208.507890527238	717.3890941120445	1190.739839051155	2154.119246287472	695.5658858999918	1155.179887440841	
